<svg width="30" height="30" viewBox="0 0 30 30" fill="none" xmlns="http://www.w3.org/2000/svg">
<path d="M15 0C12.0333 0 9.13319 0.879735 6.66645 2.52796C4.19971 4.17618 2.27713 6.51886 1.14181 9.25975C0.00649927 12.0006 -0.290551 15.0166 0.288228 17.9264C0.867006 20.8361 2.29562 23.5088 4.3934 25.6066C6.49119 27.7044 9.16394 29.133 12.0736 29.7118C14.9834 30.2906 17.9994 29.9935 20.7403 28.8582C23.4811 27.7229 25.8238 25.8003 27.472 23.3335C29.1203 20.8668 30 17.9667 30 15C29.9958 11.023 28.4141 7.21017 25.602 4.39804C22.7898 1.5859 18.977 0.00419974 15 0ZM16.1538 27.6389V18.4615H19.6154C19.9214 18.4615 20.2149 18.34 20.4313 18.1236C20.6477 17.9072 20.7692 17.6137 20.7692 17.3077C20.7692 17.0017 20.6477 16.7082 20.4313 16.4918C20.2149 16.2754 19.9214 16.1538 19.6154 16.1538H16.1538V12.6923C16.1538 12.0803 16.397 11.4933 16.8298 11.0605C17.2625 10.6277 17.8495 10.3846 18.4615 10.3846H20.7692C21.0753 10.3846 21.3687 10.263 21.5851 10.0467C21.8015 9.83027 21.9231 9.53679 21.9231 9.23077C21.9231 8.92475 21.8015 8.63126 21.5851 8.41488C21.3687 8.19849 21.0753 8.07692 20.7692 8.07692H18.4615C17.2375 8.07692 16.0635 8.56318 15.198 9.42874C14.3324 10.2943 13.8462 11.4682 13.8462 12.6923V16.1538H10.3846C10.0786 16.1538 9.78512 16.2754 9.56873 16.4918C9.35234 16.7082 9.23077 17.0017 9.23077 17.3077C9.23077 17.6137 9.35234 17.9072 9.56873 18.1236C9.78512 18.34 10.0786 18.4615 10.3846 18.4615H13.8462V27.6389C10.5935 27.342 7.58043 25.8026 5.43381 23.3408C3.28719 20.879 2.17223 17.6845 2.32084 14.4217C2.46946 11.1588 3.87022 8.07887 6.23175 5.82246C8.59328 3.56605 11.7338 2.30688 15 2.30688C18.2662 2.30688 21.4067 3.56605 23.7683 5.82246C26.1298 8.07887 27.5305 11.1588 27.6792 14.4217C27.8278 17.6845 26.7128 20.879 24.5662 23.3408C22.4196 25.8026 19.4065 27.342 16.1538 27.6389Z" fill="#FFEFBC"/>
</svg>
