<svg width="33" height="33" viewBox="0 0 33 33" fill="none" xmlns="http://www.w3.org/2000/svg">
<path d="M28.749 16.9431C28.749 17.2083 28.6437 17.4627 28.4561 17.6502C28.2686 17.8378 28.0142 17.9431 27.749 17.9431H5.74902C5.4838 17.9431 5.22945 17.8378 5.04191 17.6502C4.85437 17.4627 4.74902 17.2083 4.74902 16.9431C4.74902 16.6779 4.85437 16.4235 5.04191 16.236C5.22945 16.0485 5.4838 15.9431 5.74902 15.9431H27.749C28.0142 15.9431 28.2686 16.0485 28.4561 16.236C28.6437 16.4235 28.749 16.6779 28.749 16.9431ZM5.74902 9.94312H27.749C28.0142 9.94312 28.2686 9.83776 28.4561 9.65022C28.6437 9.46269 28.749 9.20833 28.749 8.94312C28.749 8.6779 28.6437 8.42355 28.4561 8.23601C28.2686 8.04847 28.0142 7.94312 27.749 7.94312H5.74902C5.4838 7.94312 5.22945 8.04847 5.04191 8.23601C4.85437 8.42355 4.74902 8.6779 4.74902 8.94312C4.74902 9.20833 4.85437 9.46269 5.04191 9.65022C5.22945 9.83776 5.4838 9.94312 5.74902 9.94312ZM27.749 23.9431H5.74902C5.4838 23.9431 5.22945 24.0485 5.04191 24.236C4.85437 24.4235 4.74902 24.6779 4.74902 24.9431C4.74902 25.2083 4.85437 25.4627 5.04191 25.6502C5.22945 25.8378 5.4838 25.9431 5.74902 25.9431H27.749C28.0142 25.9431 28.2686 25.8378 28.4561 25.6502C28.6437 25.4627 28.749 25.2083 28.749 24.9431C28.749 24.6779 28.6437 24.4235 28.4561 24.236C28.2686 24.0485 28.0142 23.9431 27.749 23.9431Z" fill="black"/>
</svg>
