<svg width="30" height="30" viewBox="0 0 30 30" fill="none" xmlns="http://www.w3.org/2000/svg">
<path d="M19.8804 13.8648L13.4518 8.41023C13.2904 8.27318 13.1028 8.19448 12.909 8.18253C12.7152 8.17059 12.5225 8.22583 12.3514 8.34238C12.1804 8.45893 12.0374 8.63241 11.9378 8.84429C11.8381 9.05618 11.7856 9.29852 11.7857 9.54546V20.4545C11.7856 20.7015 11.8381 20.9438 11.9378 21.1557C12.0374 21.3676 12.1804 21.5411 12.3514 21.6576C12.5225 21.7742 12.7152 21.8294 12.909 21.8175C13.1028 21.8055 13.2904 21.7268 13.4518 21.5898L19.8804 16.1352C20.0273 16.0108 20.1478 15.842 20.2312 15.6439C20.3146 15.4459 20.3582 15.2247 20.3582 15C20.3582 14.7753 20.3146 14.5541 20.2312 14.3561C20.1478 14.158 20.0273 13.9893 19.8804 13.8648ZM13.9286 17.9063V12.1023L17.3545 15L13.9286 17.9063ZM29.2406 5.03182C29.1144 4.40344 28.8726 3.82225 28.5352 3.3362C28.1978 2.85015 27.7744 2.47317 27.3 2.23637C22.7089 -0.0204482 15.4018 6.48398e-06 15 6.48398e-06C14.5982 6.48398e-06 7.29107 -0.0204482 2.7 2.23637C2.22558 2.47317 1.80219 2.85015 1.46477 3.3362C1.12735 3.82225 0.88557 4.40344 0.759375 5.03182C0.4125 6.73296 0 9.84205 0 15C0 20.158 0.4125 23.267 0.759375 24.9682C0.885381 25.5969 1.12708 26.1784 1.46451 26.6648C1.80194 27.1511 2.22542 27.5284 2.7 27.7653C7.09821 29.925 13.9821 30 14.9116 30H15.0884C16.0179 30 22.9058 29.925 27.3 27.7653C27.7746 27.5284 28.1981 27.1511 28.5355 26.6648C28.8729 26.1784 29.1146 25.5969 29.2406 24.9682C29.5875 23.2636 30 20.158 30 15C30 9.84205 29.5875 6.73296 29.2406 5.03182ZM27.1661 24.2932C27.1253 24.5023 27.0461 24.6962 26.935 24.8588C26.824 25.0215 26.6842 25.1483 26.5272 25.229C22.2884 27.3119 15.079 27.2744 15.0094 27.2744H15C14.9277 27.2744 7.72366 27.3085 3.48214 25.229C3.32514 25.1483 3.18539 25.0215 3.07434 24.8588C2.9633 24.6962 2.88412 24.5023 2.8433 24.2932C2.51786 22.7369 2.14286 19.8699 2.14286 15C2.14286 10.1301 2.51786 7.26307 2.83393 5.71535C2.87399 5.50497 2.95282 5.30976 3.06391 5.14585C3.17499 4.98194 3.31514 4.85404 3.47277 4.77273C7.56027 2.76307 14.4094 2.72728 14.9705 2.72728H15.0067C15.079 2.72728 22.2897 2.6966 26.5246 4.77273C26.6816 4.85338 26.8213 4.98023 26.9324 5.1429C27.0434 5.30556 27.1226 5.4994 27.1634 5.70853C27.4821 7.26307 27.8571 10.1301 27.8571 15C27.8571 19.8699 27.4821 22.7369 27.1661 24.2847V24.2932Z" fill="#FFEFBC"/>
</svg>
